<svg width="33" height="32" fill="none" xmlns="http://www.w3.org/2000/svg"><path d="M16.496 10.664A5.347 5.347 0 0011.16 16a5.347 5.347 0 005.336 5.336A5.347 5.347 0 0021.832 16a5.347 5.347 0 00-5.336-5.336zM32.499 16c0-2.21.02-4.399-.104-6.604-.124-2.562-.709-4.836-2.582-6.709C27.936.81 25.666.229 23.105.105c-2.21-.124-4.4-.104-6.605-.104-2.21 0-4.399-.02-6.604.104C7.334.23 5.06.814 3.187 2.687 1.31 4.564.729 6.834.605 9.396.481 11.605.501 13.794.501 16c0 2.206-.02 4.399.104 6.605.124 2.561.709 4.835 2.582 6.708 1.877 1.877 4.147 2.458 6.709 2.582 2.209.124 4.398.104 6.604.104 2.21 0 4.399.02 6.605-.104 2.561-.124 4.835-.709 6.708-2.582 1.877-1.877 2.458-4.147 2.582-6.708.128-2.206.104-4.396.104-6.605zm-16.003 8.21A8.198 8.198 0 018.286 16a8.198 8.198 0 018.21-8.21 8.198 8.198 0 018.21 8.21 8.198 8.198 0 01-8.21 8.21zm8.546-14.838a1.915 1.915 0 01-1.918-1.918c0-1.06.857-1.917 1.918-1.917a1.915 1.915 0 011.772 2.651 1.916 1.916 0 01-1.772 1.184z" fill="#9D9D9D"/></svg>