<svg width="18" height="17" fill="none" xmlns="http://www.w3.org/2000/svg"><path fill-rule="evenodd" clip-rule="evenodd" d="M5.046 2.6c0 1.047-.787 1.884-2.052 1.884h-.023C1.754 4.484.967 3.647.967 2.6c0-1.069.81-1.882 2.051-1.882 1.24 0 2.004.813 2.028 1.882zm-.239 3.37v10.895H1.181V5.971h3.626zm13.076 10.895V10.62c0-3.347-1.788-4.904-4.174-4.904-1.925 0-2.787 1.057-3.269 1.8V5.97H6.814c.048 1.022 0 10.894 0 10.894h3.626V10.78c0-.325.024-.65.12-.883.262-.65.858-1.324 1.86-1.324 1.313 0 1.838.999 1.838 2.463v5.828h3.625z" fill="#fff"/></svg>