<svg width="19" height="16" fill="none" xmlns="http://www.w3.org/2000/svg"><path d="M9.122 4.567l.038.635-.641-.078C6.184 4.827 4.144 3.816 2.412 2.12l-.847-.841-.218.621c-.462 1.386-.167 2.85.795 3.834.513.544.398.622-.487.298-.308-.104-.578-.181-.603-.142-.09.09.218 1.269.462 1.735.333.648 1.013 1.283 1.757 1.658l.629.298-.744.013c-.719 0-.744.013-.667.285.256.842 1.27 1.736 2.399 2.124l.795.272-.693.415a7.222 7.222 0 01-3.438.958C.975 13.66.5 13.712.5 13.751c0 .13 1.565.855 2.476 1.14 2.733.841 5.979.479 8.416-.959 1.732-1.023 3.465-3.057 4.273-5.025.436-1.05.872-2.967.872-3.886 0-.596.039-.674.757-1.386.424-.415.821-.868.898-.997.129-.247.116-.247-.539-.026-1.09.388-1.244.336-.705-.246.398-.415.872-1.166.872-1.386 0-.04-.192.026-.41.142-.231.13-.744.324-1.13.44l-.692.22-.629-.427c-.346-.233-.834-.492-1.09-.57-.655-.181-1.655-.155-2.246.052-1.603.583-2.617 2.085-2.501 3.73z" fill="#fff"/></svg>