<svg width="88" height="30" fill="none" xmlns="http://www.w3.org/2000/svg"><path d="M.903 0H87.98v30H.903V0z" fill="#6F6F6F"/><path d="M59.556 9.258h3.258v.63c1.96-.8 3.864-1.183 5.408.553.879-.371 1.679-.857 2.547-1.059 2.524-.598 4.281.93 3.966 3.504-.314 2.575-.812 5.139-1.228 7.72h-3.302c.18-1.15.349-2.265.541-3.381.203-1.24.417-2.48.62-3.717a.105.105 0 01.011-.055c.124-.936-.192-1.646-.822-1.826-.688-.192-1.544.192-1.848 1.036-.304.844-.418 1.742-.58 2.626-.283 1.657-.53 3.335-.824 4.993a.557.557 0 01-.36.349c-.97.033-1.95.01-2.987.01.203-1.284.407-2.535.609-3.786.191-1.205.406-2.4.58-3.6.102-.654-.191-1.296-.687-1.543-.496-.248-1.138-.09-1.634.394-.63.62-.664 1.442-.8 2.23-.349 2.09-.676 4.181-1.026 6.289h-3.29c.62-3.806 1.23-7.558 1.848-11.367zm-29.703 10.21a1066.74 1066.74 0 01-1.037 6.321h-3.301c.9-5.522 1.792-11.009 2.693-16.52h3.301c-.033.282-.079.54-.1.766.675-.259 1.33-.619 2.027-.765 2.367-.508 4.327.731 4.994 3.064.956 3.346-1.411 7.347-4.825 8.107-1.374.288-2.614.006-3.752-.974zm5.25-4.87c.012-1.277-.472-2.117-1.277-2.422-.805-.304-1.735.034-2.422.868a3.673 3.673 0 00-.846 2.761c.08.834.429 1.532 1.278 1.825.813.282 1.51-.022 2.108-.574a3.588 3.588 0 001.16-2.457zM3.508 17.822c.755-.63 1.487-1.239 2.22-1.858.327.373.609.755.947 1.071.813.778 1.768.789 2.787.44.98-.338 1.61-.991 1.79-2.04.117-.71-.089-1.307-.709-1.701-.439-.282-.913-.508-1.375-.755-.281-.147-.574-.283-.856-.417-3.97-1.94-3.317-6.287-.454-8.295 1.905-1.33 3.876-1.162 5.86-.214.427.203.822.484 1.277.755-.642.8-1.239 1.543-1.825 2.264-.53-.232-1.026-.506-1.555-.664-1.25-.383-2.377.135-2.952 1.308-.383.788-.215 1.498.54 1.938.755.44 1.533.777 2.288 1.182 1.408.756 2.438 1.826 2.659 3.484.348 2.547-.929 4.754-3.29 5.807-2.8 1.224-5.66.355-7.352-2.305zM16.67 9.259h3.313c-.395 2.41-.766 4.8-1.161 7.178-.158.958.116 1.33 1.07 1.409 1.195.1 1.743-.349 1.927-1.51.372-2.345.767-4.688 1.162-7.077h3.301c-.225 1.43-.45 2.84-.687 4.26-.158.98-.328 1.96-.496 2.94-.372 2.197-1.837 3.675-4.023 4.035-1.24.203-2.468.213-3.663-.233-1.454-.551-2.219-1.915-1.96-3.46.405-2.482.8-4.984 1.217-7.542zm40.747 6.164h-7.084c-.09 1.172.474 2.344 1.32 2.614 1.408.465 2.14-.484 2.827-1.499.778.294 1.544.58 2.31.868-.947 2.006-3.775 4-6.592 3.066-1.983-.654-2.93-2.198-3.122-4.204-.301-3.099 2.002-6.242 5.01-6.918 2.614-.581 4.914.929 5.308 3.6.112.782.023 1.616.023 2.473zm-6.785-2.029h4.08c-.338-1.277-1.003-1.95-1.858-1.96-.936-.011-1.849.789-2.222 1.96zm32.308 3.144c.777.294 1.532.58 2.288.857-1.342 2.749-5.285 4.485-7.956 2.332-1.533-1.239-1.994-2.93-1.69-4.8.417-2.649 1.881-4.563 4.462-5.443 2.963-1.013 5.69.868 5.882 4.001.045.63.011 1.261.011 1.938H78.78c-.123 1.105.474 2.265 1.308 2.614.901.394 1.68 0 2.851-1.499zm.158-3.11c-.057-1.045-.88-1.974-1.77-2.005-.968-.034-2.106.991-2.206 2.005h3.976zM47.5 9.248l-.845 2.862a3.604 3.604 0 01-.36-.067c-1.567-.486-2.918.314-3.212 1.948-.36 1.995-.665 3.99-.992 5.985-.034.202-.079.405-.116.63h-3.287c.62-3.797 1.23-7.561 1.848-11.347h3.268c-.01.259-.034.508-.056.8 1.138-.857 2.389-.97 3.752-.812z" fill="#fff"/></svg>