<svg width="116" height="30" fill="none" xmlns="http://www.w3.org/2000/svg"><path fill-rule="evenodd" clip-rule="evenodd" d="M40.658 3.73h2.825v.964c.304-.265 1.283-1.202 3.092-1.202 2.129 0 3.82 1.571 3.82 4.04v6.404H47.41V8.324c0-1.375-.67-2.19-1.884-2.19-1.178 0-1.885.768-1.885 2.19v5.612h-2.983V3.73zm31.37 5.102c0-1.41 1.053-2.57 2.518-2.57 1.466 0 2.52 1.16 2.52 2.57 0 1.411-1.054 2.571-2.52 2.571-1.465 0-2.518-1.16-2.518-2.57zm-2.946 0c0 2.944 2.358 5.335 5.445 5.335s5.445-2.39 5.445-5.335c0-2.944-2.358-5.34-5.445-5.34s-5.445 2.396-5.445 5.34zm-38.036.001c0-1.411 1.054-2.57 2.519-2.57 1.466 0 2.52 1.159 2.52 2.57 0 1.411-1.054 2.57-2.52 2.57-1.465 0-2.52-1.159-2.52-2.57zm-2.946 0c0 2.945 2.36 5.336 5.445 5.336 3.088 0 5.447-2.39 5.447-5.335 0-2.944-2.36-5.342-5.447-5.342-3.086 0-5.445 2.398-5.445 5.342zM94.447 3.73h3.025v10.207h-3.025V3.73zm0-3.728h3.025v2.596h-3.025V0zm5.357 0h3.025v13.936h-3.025V0zM89.621 8.827c0 1.44-1.103 2.557-2.55 2.557-1.46 0-2.557-1.114-2.557-2.55 0-1.454 1.112-2.555 2.562-2.555 1.457 0 2.545 1.112 2.545 2.548zm-5.031 5.11l.031-.786c.212.16 1.147 1.018 3.105 1.018 2.572 0 4.96-2.304 4.96-5.335 0-3.036-2.24-5.342-4.927-5.342-2.052 0-2.992.941-3.137 1.046V0h-2.9v13.936h2.868z" fill="#6F6F6F"/><path fill-rule="evenodd" clip-rule="evenodd" d="M10.507 13.936l4.758-5.957-4.21-4.25h4.18L17.1 5.653l3.436-4.422h3.504L19.01 7.57l1.958 1.966 4.524-5.807h3.513l-6.121 7.734 7.773 7.815h-4.239l-5.408-5.503-2.874 3.724h-3.512l4.488-5.62-1.961-1.985-3.145 4.042h-3.498zM.634 0h9.178v2.597H3.756v2.888H9.54v2.521H3.756v3.328h6.056v2.602H.634V0zm52.149 0h4.934l2.33 10.172h.105L62.538 0h4.795v13.936h-2.935V3.413h-.134L61.68 13.936h-3.3L55.854 3.413h-.134v10.523h-2.937V0z" fill="#6F6F6F"/><path fill-rule="evenodd" clip-rule="evenodd" d="M60.842 20.979c.015-.182-.123-.337-.322-.46-.52-.32-1.607-.52-2.19-.52-3.153 0-3.919 3.109-3.919 5.758 0 2.02.856 3.246 2.97 3.246 1.119 0 2.053-.429 3.003-.98l.336-.199.153.137-.2.598c-1.209.797-2.604 1.44-4.073 1.44-2.787 0-4.301-1.287-4.301-4.12 0-3.66 2.909-6.784 6.63-6.784.917 0 2.066.2 2.954.66-.245.872-.49 1.714-.582 2.571h-.536l.077-1.347zm7.502 6.554a3.611 3.611 0 00-.123 1.01c0 .123.078.2.184.2.185 0 .583-.23.936-.46l.244-.152.137.398c-.719.49-2.082 1.47-2.847 1.47-.185 0-.46-.169-.46-.66 0-.566.397-1.99.66-2.94.09-.321.457-1.577.457-1.99 0-.23-.013-.504-.337-.504-.383 0-1.423.596-2.495 2.647-.383.736-.797 2.313-.857 3.124-.398.015-1.316.154-1.624.262l-.151-.17c.259-.429.872-3.323 1.041-4.196.32-1.653.658-3.49.873-4.96.076-.536.123-.857-.475-.857h-.69l.108-.429c1.026-.154 2.112-.322 3.03-.705l.154.138c-.076.321-.183.643-.26.996l-1.332 6.123.032.03c.35-.58.855-1.193 1.377-1.744.795-.858 1.99-1.608 2.862-1.608.29 0 .612.169.612.673 0 .66-.291 1.394-.474 2.099l-.582 2.205zm4.21-1.15l.215-.887c.215-.842.658-2.205 1.73-2.205.46 0 .704.352.704.78 0 1.149-1.04 1.853-2.021 2.129l-.628.184zm-1.882 1.702c0 1.24.627 1.913 1.898 1.913 1.333 0 2.481-.873 3.599-1.578l-.153-.428c-.598.397-1.7 1.026-2.42 1.026-.797 0-1.18-.46-1.18-1.225 0-.321.031-.674.078-1.011.98-.215 1.853-.445 2.512-.766.916-.444 1.637-1.041 1.637-2.174 0-.843-.642-1.287-1.454-1.287-.353 0-.797.108-1.12.23a8.256 8.256 0 00-1.407.766c-.98.673-1.272 1.332-1.608 2.42-.167.55-.382 1.547-.382 2.114zm9.293-1.732l.032.03c.52-1.224 2.726-3.827 4.133-3.827.46 0 .598.352.598.766 0 .306-.122.828-.29 1.408l-.46 1.623.03.03c.368-.841.919-1.56 1.564-2.234.58-.613 1.897-1.593 2.77-1.593.382 0 .565.337.565.689 0 .352-.06.736-.152 1.088l-.766 2.816c-.152.568-.305 1.195-.305 1.395 0 .122.075.2.183.2.183 0 .567-.246.92-.49l.366-.261.183.383C88.356 29.233 87.1 30 86.489 30c-.338 0-.612-.169-.612-.66 0-.566.52-2.603.627-2.94.108-.321.522-1.745.522-2.066 0-.154-.092-.261-.276-.261-.46 0-1.164.736-1.439 1.042a6.905 6.905 0 00-1.333 2.205 8 8 0 00-.521 2.358c-.366.015-1.285.153-1.592.261l-.153-.17c.322-.934.658-2.204.873-3.093.152-.642.415-1.592.415-2.205 0-.214-.092-.398-.262-.398-.243 0-.55.062-.888.398A8.068 8.068 0 0079.8 27.9a13.23 13.23 0 00-.384 1.776c-.368.015-1.286.153-1.592.261l-.152-.17c.32-.934.659-2.204.874-3.093.183-.766.396-2.006.396-2.311 0-.246-.091-.292-.183-.292-.122 0-.29.046-.643.307l-.567.429-.214-.399 1.286-1.042c.644-.52 1.316-.81 1.669-.81.29 0 .384.23.384.458 0 .291-.063.583-.291 1.579l-.417 1.759zm13.06.796c-.153.568-.308 1.195-.308 1.395 0 .122.077.2.185.2.183 0 .582-.231.933-.46l.414-.26.183.428c-.871.596-2.02 1.547-3 1.547-.183 0-.46-.169-.46-.66 0-.259.047-.611.093-.795l.903-3.691c.047-.169.093-.367.122-.567 0-.122-.015-.214-.166-.214-.17 0-.874.398-1.044.522l-.336.244-.2-.398.966-.72c1.316-.948 1.974-1.163 2.296-1.163.199 0 .382.199.382.567 0 .352-.046.659-.136 1.026l-.827 3zm1.7-7.196c0 .628-.385 1.148-1.043 1.148-.535 0-.843-.336-.843-.873 0-.582.415-1.133 1.042-1.133.476 0 .843.384.843.858zm6.997 2.971c-.276.704-.398 1.44-.537 2.159h-.505l.092-.858c.015-.092 0-.17-.061-.214-.276-.214-.828-.505-1.377-.505-.813 0-1.257.535-1.517 1.225-.291.75-.534 2.02-.534 2.847 0 .751.381 1.395 1.208 1.395.95 0 1.792-.567 2.542-1.072l.152.46c-1.055.734-2.343 1.638-3.674 1.638-1.333 0-1.977-.904-1.977-2.143 0-.92.354-2.666.935-3.37.52-.628 1.287-1.088 1.991-1.47.475-.26.889-.46 1.485-.46.688 0 1.133.138 1.777.368zm2.785 5.819c-.199 0-.275-.354-.275-.583 0-.535.229-1.5.367-2.037.2-.796.398-1.654.873-2.342.213-.307.598-.43.965-.43s.857.17 1.178.339a6.855 6.855 0 01-.443 1.684c-.628 1.454-1.18 2.143-1.838 2.832-.306.322-.612.537-.827.537zm4.136-5.789c-.491-.214-.966-.397-1.516-.397-.292 0-.736.03-1.026.153-.613.26-2.083 1.5-2.343 1.806-.69.812-1.24 3.186-1.24 4.302 0 .506.214 1.18.811 1.18 1.562 0 3.261-2.496 3.919-3.736l.032.03-.537 2.175a3.5 3.5 0 00-.106.873c0 .49.276.659.459.659.827 0 1.929-.811 2.695-1.515l-.183-.46-.307.245c-.26.215-.657.445-.843.445-.121 0-.214-.094-.214-.308 0-.215.094-.52.154-.796l.688-3.276c.078-.337.17-.69.261-.95l.23-.659-.245-.184-.689.413zm4.304-2.342c.123-.522.123-.857-.475-.857h-.69l.107-.429c1.026-.154 2.114-.322 3.033-.705l.153.138c-.077.321-.183.643-.261.996l-1.638 7.38c-.076.367-.185.888-.185 1.409 0 .122.078.2.185.2.183 0 .583-.231.811-.399l.459-.352.214.413c-1.178.857-2.128 1.593-3.016 1.593-.184 0-.459-.169-.459-.66 0-.81.123-1.316.244-1.836l1.518-6.891z" fill="#6B7279"/></svg>