<svg width="153" height="30" fill="none" xmlns="http://www.w3.org/2000/svg"><path d="M145.631 11.903l-5.278 4.848 5.278 4.848v2.8h-.161l-7.864-7.163v6.786h-2.262V3.447h2.262V16.32l7.864-7.11h.215v2.693h-.054zM42.7 24.023h11.634v-2.317H45.07V4.147H42.7v19.875zM62.413 9.21c-3.554 0-6.84 2.909-6.84 7.595 0 4.524 2.962 7.54 7.271 7.54 1.886 0 3.663-.484 5.279-1.615v-2.478c-1.67 1.4-3.501 1.993-5.17 1.993-2.586 0-4.849-1.616-5.064-4.579h10.88c0-.269.108-.915.108-1.184-.054-4.794-2.962-7.272-6.463-7.272zm0 2.047c1.993 0 4.094 1.293 4.148 4.417h-8.726c.162-2.424 1.993-4.417 4.578-4.417zM100.71 9.21c-1.94 0-3.34 1.023-4.148 2.532-.7-1.616-1.992-2.532-4.04-2.532-1.777 0-3.123 1.023-3.877 2.424h-.108l-.27-2.155H86.49v14.543h2.316v-9.156c0-1.778 1.077-3.448 3.124-3.448 1.94 0 2.801 1.132 2.801 3.232v9.372h2.316v-9.318c0-1.67 1.131-3.286 3.07-3.286 1.993 0 2.855 1.132 2.855 3.232v9.372h2.316v-9.695c.054-3.016-1.4-5.117-4.578-5.117zm13.95 0c-3.447 0-6.679 2.909-6.679 7.595 0 4.578 3.232 7.54 6.679 7.54 2.155 0 4.202-1.023 5.333-3.016h.054l.269 2.693h1.885V9.48h-1.885l-.269 2.694h-.054c-1.078-1.94-3.124-2.963-5.333-2.963zm.431 2.155c2.747 0 4.794 2.208 4.794 5.386s-2.047 5.386-4.794 5.386c-2.693 0-4.794-2.154-4.794-5.386s2.101-5.386 4.794-5.386zm16.967-2.047c-1.239 0-3.178.592-4.148 2.478l-.215-2.317h-1.831v14.543h2.316v-8.348c0-3.34 2.693-4.417 4.955-3.932V9.425c-.431-.053-.7-.107-1.077-.107zm-48.53-.162h-.162L77.28 15.19l-6.033-6.033h-.162v2.909l4.686 4.686-4.686 4.632v2.963h.162l5.979-6.033 6.086 6.086h.216v-2.962l-4.686-4.686 4.686-4.74V9.156zm63.234-5.548v-.323h2.424v.323h-1.023v2.424h-.377V3.608h-1.024zm3.609-.323l1.024 2.316 1.023-2.316h.485v2.747h-.27V3.716l-1.023 2.262h-.323l-1.023-2.262v2.262h-.324V3.285h.431zM30.204 24.13V0h-5.871L15.23 9.103 30.204 24.13z" fill="#6F6F6F"/><path d="M.202 5.871v24.13h5.871l9.103-9.156L.202 5.87z" fill="#C6C6C6"/><path d="M6.073 30h24.13v-5.87L21.1 14.972 6.073 30z" fill="#262626"/><path d="M24.333 0H.203v5.871l9.102 9.103L24.333 0z" fill="#9D9D9D"/></svg>