<svg width="117" height="30" fill="none" xmlns="http://www.w3.org/2000/svg"><path fill-rule="evenodd" clip-rule="evenodd" d="M47.937 19.679v-2.761c-1.195.199-1.859.371-2.523.65-.929.358-1.194.796-1.194 1.938 0 1.035.398 1.42 1.194 1.42.797 0 1.726-.45 2.523-1.247zm-5.443-6.226l-.398.16-.93-2.55c1.195-.623 1.726-.81 2.788-1.061a14.031 14.031 0 013.319-.385c3.451 0 4.646 1.194 4.646 4.725v6.784c0 .716.398 1.075 1.195 1.075h.132v1.42h-3.982c-.797 0-1.195-.411-1.195-1.274v-.425c-.796.73-1.062.89-1.725 1.195-.664.424-1.593.637-2.523.637-2.389 0-3.45-1.248-3.45-3.863 0-2.084.796-3.411 2.521-4.102a10.708 10.708 0 011.593-.53c1.062-.226 1.593-.332 3.452-.638v-.345c0-1.221-.399-1.66-1.726-1.66-.266 0-.797.054-1.195.107-.796.146-1.46.305-2.522.73zM38.25 6.801c0-1.221-.93-1.938-2.39-1.938-1.592 0-2.389.717-2.389 1.938 0 1.248.797 1.978 2.39 1.978 1.46 0 2.39-.73 2.39-1.978zm-.133 16.819V11.167c0-.863-.53-1.367-1.327-1.367h-4.115v1.5h.265c.797 0 1.062.332 1.062 1.088v11.23h4.115zm-26.948-7.43H6.92l2.257-7.34 1.99 7.34zm-6.24 7.421l1.328-4.474H11.7l1.327 4.474h4.514L12.76 6.633c-.265-1.115-.796-1.473-1.99-1.473H4.132v1.526h.531c.797 0 1.195.252 1.195.863 0 .385 0 .637-.398 1.553L.68 23.611h4.25zm18.32 0V6.514c0-.89-.532-1.354-1.461-1.354h-4.115v1.526h.265c.797 0 1.195.332 1.195 1.049V23.61h4.115zM30.68 6.514V23.61h-4.115V7.735c0-.717-.398-1.049-1.195-1.049h-.265V5.16h4.115c.93 0 1.46.464 1.46 1.354zm28.804 17.092v-9.371c.93-.863 1.593-1.195 2.522-1.195.93 0 1.195.398 1.195 1.805v8.761h4.115v-9.425c0-1.938-.266-2.774-.797-3.504-.663-.717-1.46-1.049-2.654-1.049-1.593 0-2.788.584-4.647 2.19v-.743c0-.863-.398-1.287-1.194-1.287h-3.983v1.5h.133c.797 0 1.195.332 1.195 1.088v11.23h4.115zm14.473-2.643h6.106v2.642h-10.62v-2.867l5.974-8.336h-3.186c-.797 0-1.195.305-1.195 1.061v.28h-1.46v-2.51c0-1.022.398-1.447 1.46-1.447h8.761v2.841l-5.84 8.336zm29.599 1.882V7.208c0-1.261-.53-1.673-1.725-1.673h-3.584v1.726h.398c.664 0 .93.252.93 1.022v14.562h3.981zm2.124 0h3.85v-11.8c0-1.195-.531-1.673-1.726-1.673h-2.124v13.473zm-8.23 0V9.372h-2.124c-1.194 0-1.725.478-1.725 1.672v11.801h3.85zm16.593-7.858c0 7.314-5.31 12.65-12.478 12.65s-12.478-5.336-12.478-12.65 5.31-12.65 12.478-12.65 12.478 5.336 12.478 12.65zm2.522 0c0-8.562-6.371-14.987-15-14.987-8.495 0-15 6.425-15 14.987 0 8.588 6.505 15.013 15 15.013 8.629 0 15-6.425 15-15.013z" fill="#6F6F6F"/></svg>