<svg width="224" height="30" fill="none" xmlns="http://www.w3.org/2000/svg"><path d="M120.317 6.114h3.435v17.779h-4.378l-5.093-8.179a41.406 41.406 0 01-1.614-2.95h-.05v11.129h-3.45V6.114h4.042l6.036 9.686c.403.638.75 1.31 1.036 2.007V6.114h.036zm19.757 7.279h-5.986V6.107h-4.364v17.779h4.364V16.3h5.986v7.586h4.385V6.107h-4.385v7.286zm-63.893 2.764h5.671v-2.671h-5.671V8.857h7.593V6.114H71.802v17.779h12.1v-2.964h-7.721v-4.772zm-15.757-6a.792.792 0 01.65-1.307h6.507V6.114h-7.7a3.793 3.793 0 00-3.907 3.572c0 1.043.078 1.8 1.643 3.443L63.41 19.2a.986.986 0 01-.672 1.729h-7.143v2.964h8.172a4.207 4.207 0 004.35-4.179c0-1.178-.279-1.964-1.829-3.571l-5.864-5.986zm39.343 7.629a12.917 12.917 0 00-1.036-2.007l-6.036-9.686h-4.043v17.8h3.436V12.786h.05s.714 1.543 1.614 2.95l5.1 8.178h4.379v-17.8h-3.436v11.679l-.028-.007zm96.5-1.629h5.671v-2.671h-5.671V8.857h7.592V6.114h-11.971v17.779h12.1v-2.964h-7.721v-4.772zm26.935 7.736h-4.75l-3.414-7.3h-1.914v7.3h-4.372V6.114h7.972c3.843 0 5.628 2.393 5.628 5.157a5.096 5.096 0 01-3.428 4.815l4.278 7.807zm-4.593-12.507c0-.822-.478-2.529-2.785-2.529h-2.707v5.057h2.657c2.4 0 2.835-1.771 2.835-2.528zm-38.157-1.222a.793.793 0 01.65-1.307h6.507V6.114h-7.728a3.795 3.795 0 00-3.907 3.572c0 1.043.078 1.8 1.643 3.443l5.792 6.071a.987.987 0 01-.65 1.764h-7.164v2.965h8.172a4.207 4.207 0 004.35-4.179c0-1.179-.279-1.964-1.829-3.571l-5.836-6.015zm-25.65 6h5.672v-2.678h-5.665V8.857h7.593V6.114h-11.971v17.779h12.1v-2.964h-7.722v-4.765h-.007zm12.486 7.736h4.379V6.114h-4.379V23.9zM.595 0v30h40V0h-40zM22.61 2.764c-2.38.915-4.665 2.929-6.508 6.972-.535 1.171-1.543 3.435-2 4.45-3.707 8.135-5.607 9.885-11.2 9.885V2.25H22.51a.264.264 0 01.1.514zm15.714 3.157V27.75H18.68a.264.264 0 01-.093-.514c2.379-.915 4.664-2.929 6.507-6.972.536-1.171 1.543-3.435 2-4.45 3.7-8.135 5.6-9.885 11.193-9.885l.036-.008z" fill="#6F6F6F"/></svg>