<svg width="159" height="30" fill="none" xmlns="http://www.w3.org/2000/svg"><path d="M10.613 1.508a.82.82 0 01.427-.824c.36-.064.724-.089 1.089-.075h2.526c3.148 0 4.702 2.06 4.702 6.182 0 3.448-1.593 5.17-4.819 5.17h-3.07c-.583 0-.856-.186-.856-.56l.001-9.893zm.7 11.092c.193-.038 1.088 0 2.603 0 2.28.104 4.55-.36 6.606-1.349a5.34 5.34 0 003.299-4.422 5.368 5.368 0 00-2.76-5.133A11.933 11.933 0 0014.46.01C6.416.047 2.025.047 1.248.047 1.054.084.937.16.937.347s.078.262.272.262a18.25 18.25 0 014.236.45c.427.15.621.524.621 1.16l.156 18.288a1.112 1.112 0 01-.7 1.16 25.77 25.77 0 01-4.118.526c-.194 0-.311.075-.311.262 0 .15.117.225.31.225h14.65c.272 0 .428-.075.428-.263 0-.112-.156-.187-.467-.225a35.071 35.071 0 01-4.158-.487c-.816-.225-1.244-.637-1.244-1.2v-7.231a.862.862 0 01.117-.562.948.948 0 01.584-.112zm18.651 10.64a6.069 6.069 0 004.236-1.498 6.356 6.356 0 001.982-4.01c.039-.336-.078-.486-.311-.486-.156 0-.272.112-.31.375a5.814 5.814 0 01-1.904 3.859 4.98 4.98 0 01-3.225 1.086c-2.798 0-4.197-2.023-4.197-6.07.039-.487.078-.862.078-1.05h9.4c.27 0 .388-.15.388-.45a8.081 8.081 0 00-1.71-5.246 5.441 5.441 0 00-4.469-2.06 6.878 6.878 0 00-5.323 2.548 8.515 8.515 0 00-2.214 5.808 6.68 6.68 0 002.135 5.284 7.855 7.855 0 005.444 1.91zm-.117-15.025c2.02.037 2.953 2.024 2.875 5.996 0 .412-.194.6-.543.6h-5.247c-.427 0-.621-.15-.621-.487a9.094 9.094 0 01.932-4.497 2.807 2.807 0 012.604-1.612zm6.795.45a7.25 7.25 0 012.566.413c.31.187.466.636.466 1.31l.194 10.268a1.351 1.351 0 01-.971 1.46 9.054 9.054 0 01-1.982.15c-.194 0-.31.075-.31.225 0 .113.077.187.271.187h8.704c.195 0 .31-.075.35-.187 0-.15-.117-.225-.35-.225-1.515 0-2.292-.336-2.292-1.049l-.04-3.747c-.072-6.032 1.17-9.067 3.775-9.067 1.438 0 2.137.862 2.137 2.623V21.22c0 .712-.738 1.05-2.254 1.05-.233 0-.35.074-.35.224 0 .113.117.187.35.187h8.316c.233 0 .35-.075.35-.187s-.116-.187-.35-.225c-.582-.075-1.204-.15-1.825-.262-.506-.112-.739-.375-.739-.787l.194-9.18a4.054 4.054 0 00-1.322-3.15 4.42 4.42 0 00-3.304-1.237 6.284 6.284 0 00-2.798.524 5.357 5.357 0 00-1.981 2.549h-.156c-.078-1.162-.156-2.024-.195-2.586 0-.3-.156-.45-.505-.412-2.68.225-4.663.337-5.945.412-.194 0-.311.113-.311.225a.281.281 0 00.311.3h-.005zm18.497.225h1.758c.506 0 .738.188.738.6 0 .111-.038 1.573-.038 4.383v5.322a3.874 3.874 0 001.282 3.073 4.33 4.33 0 002.837.9 4.675 4.675 0 003.147-.825c.7-.637 1.05-1.836 1.05-3.597 0-.337 0-.861-.04-1.611-.038-.75-.038-1.274-.038-1.574 0-.262-.078-.412-.233-.412-.194 0-.311.15-.311.412v2.735c0 2.698-.778 4.047-2.37 4.047-1.206 0-1.788-1.049-1.788-3.11V8.852h3.575c.428 0 .66-.113.66-.375 0-.3-.193-.45-.62-.45H61.71c-.388 0-.582-.187-.582-.561 0-.787 0-1.799-.039-3.11-.039-1.274-.039-2.173-.039-2.698 0-.263-.117-.412-.389-.412-.233 0-.35.15-.389.412a9.468 9.468 0 01-1.398 4.422 3.99 3.99 0 01-3.77 2.21c-.272-.037-.428.075-.428.3.002.188.157.3.468.3h-.005zm30.698 4.084a4.269 4.269 0 001.944 3.335v.113a4.012 4.012 0 00-2.37 1.349 3.125 3.125 0 00-.467 1.873 3.866 3.866 0 002.642 3.673v.113c-1.321.561-2.02.899-2.099.936a1.576 1.576 0 00-.97 1.349c0 1.086.738 2.06 2.254 2.923a11.666 11.666 0 005.672 1.349 8.505 8.505 0 005.09-1.35 4.452 4.452 0 002.021-3.858 4.55 4.55 0 00-1.516-3.635 6.89 6.89 0 00-4.74-1.31c-.428 0-1.127 0-2.175.074-.778.037-1.517.075-2.177.075-1.904 0-2.837-.45-2.837-1.386 0-1.124.778-1.686 2.37-1.686a6.584 6.584 0 011.632.263 8.323 8.323 0 001.671.225 8.97 8.97 0 004.585-1.05 4.443 4.443 0 002.3-3.862c.077-1.536-.856-2.997-2.798-4.384-.194-.112-.272-.487-.272-1.199 0-1.049.233-1.574.7-1.574a.181.181 0 01.194.188 1.287 1.287 0 001.205 1.461 1.121 1.121 0 00.932-.337c.227-.26.352-.592.35-.937 0-.9-.506-1.349-1.438-1.349-1.749 0-2.565 1.162-2.486 3.448a13.971 13.971 0 00-2.882-.413 6.664 6.664 0 00-4.465 1.612 5.066 5.066 0 00-1.865 3.971h-.005zm6.61-5.17c1.866 0 2.799 1.649 2.799 4.946 0 2.773-.972 4.16-2.915 4.16a2.699 2.699 0 01-2.176-.862 5.858 5.858 0 01-.855-3.673c0-3.035 1.049-4.571 3.148-4.571zm.7 15.513c3.225.075 4.857 1.01 4.857 2.81a2.808 2.808 0 01-1.748 2.585 8.528 8.528 0 01-4.041.824c-3.42-.075-5.129-1.162-5.13-3.26a2.418 2.418 0 011.36-2.398 12.016 12.016 0 014.702-.562zm14.3-7.12a20.36 20.36 0 01.621-5.283 3.998 3.998 0 011.904-2.36c.282-.174.602-.277.932-.3.428 0 .661.112.7.336.039.038-.155.225-.583.525a1.905 1.905 0 00-.66 1.574c-.005.415.148.817.427 1.124a1.684 1.684 0 001.36.637 1.964 1.964 0 002.099-2.023 2.696 2.696 0 00-.855-2.024 2.729 2.729 0 00-2.215-.674 3.416 3.416 0 00-2.525 1.312 13.388 13.388 0 00-1.204 2.173h-.117c0-.824-.039-1.761-.078-2.848 0-.412-.194-.6-.544-.561-3.302.261-5.246.374-5.79.411-.232 0-.349.112-.349.3 0 .113.116.225.349.225a6.626 6.626 0 012.41.375c.273.15.427.637.427 1.424l.117 10.192c0 .712-.155 1.125-.544 1.274a14.08 14.08 0 01-2.371.225c-.233 0-.349.075-.349.225 0 .187.117.262.31.262h9.87c.233 0 .35-.075.35-.262 0-.15-.116-.225-.35-.225-2.331 0-3.458-.374-3.458-1.16l.116-4.874zm8.121-4.272a2.307 2.307 0 00.583 1.536 1.857 1.857 0 001.476.637 1.827 1.827 0 001.399-.562 1.8 1.8 0 00.544-1.35 1.827 1.827 0 00-1.126-1.723 3.016 3.016 0 00-.545-.188c-.194-.037-.272-.113-.272-.225 0-.337.389-.75 1.167-1.236a4.807 4.807 0 012.293-.787c1.904-.075 2.875.674 2.875 2.286v2.66c0 1.012-.7 1.574-2.06 1.724a16.78 16.78 0 00-4.39.974 4.758 4.758 0 00-1.788 1.35 3.375 3.375 0 00-.816 2.172 3.636 3.636 0 001.128 2.885 4.42 4.42 0 002.953.975 6.355 6.355 0 002.953-.525 6.477 6.477 0 001.826-1.649c.117-.225.194-.336.273-.336.079 0 .155.113.272.336a2.993 2.993 0 002.915 2.024 4.388 4.388 0 002.564-.6 3.347 3.347 0 00.971-2.773v-2.398c0-.337-.078-.525-.272-.525-.156 0-.233.188-.233.525 0 .225 0 .6-.039 1.124-.039.525-.039.936-.039 1.2 0 1.761-.504 2.66-1.476 2.66-.778 0-1.167-.712-1.167-2.1v-8.54a3.292 3.292 0 00-1.399-2.774 6.868 6.868 0 00-4.158-1.124 8.206 8.206 0 00-4.352 1.161 3.632 3.632 0 00-2.059 3.186h-.001zm2.992 7.195a5.13 5.13 0 01.66-2.586 2.468 2.468 0 011.827-1.312c.739-.111 1.321-.186 1.749-.3a3.25 3.25 0 00.777-.262.569.569 0 01.233-.075c.117 0 .155.225.155.711v3.523a3.8 3.8 0 01-1.01 2.548 3.234 3.234 0 01-2.449 1.086c-1.281.001-1.941-1.123-1.941-3.333h-.001zm-50.164-7.27c-.014.568.195 1.12.582 1.536a1.998 1.998 0 001.515.637 1.82 1.82 0 001.4-.561 1.775 1.775 0 00.544-1.311 1.898 1.898 0 00-1.166-1.761c-.04 0-.195-.075-.506-.15-.194-.075-.31-.113-.31-.225 0-.337.388-.786 1.165-1.274a4.743 4.743 0 012.332-.75c1.903-.074 2.837.638 2.837 2.249v2.66c0 1.011-.7 1.61-2.06 1.76a16.487 16.487 0 00-4.352.975c-.727.3-1.368.776-1.865 1.386a3.348 3.348 0 00-.778 2.099 3.77 3.77 0 001.126 2.922 4.456 4.456 0 002.992.975 6.53 6.53 0 002.953-.563 5.744 5.744 0 001.788-1.612c.117-.224.233-.336.31-.336.079 0 .156.113.233.336a2.997 2.997 0 002.914 2.024 4.253 4.253 0 002.603-.6 3.388 3.388 0 00.935-2.77v-2.438c0-.337-.078-.525-.272-.525-.155 0-.233.187-.233.525 0 .262-.039.638-.039 1.162v1.2c0 1.761-.504 2.66-1.477 2.66-.776 0-1.165-.712-1.166-2.136v-8.543a3.341 3.341 0 00-1.477-2.81 7.075 7.075 0 00-4.08-1.05 8.11 8.11 0 00-4.35 1.162 3.788 3.788 0 00-2.1 3.147h.002zm3.03 7.195a5.135 5.135 0 01.661-2.586 2.52 2.52 0 011.827-1.274 17.725 17.725 0 001.748-.336c.257-.034.507-.11.739-.225a1.57 1.57 0 01.233-.075c.117 0 .195.225.195.711v3.485a3.797 3.797 0 01-1.01 2.548 3.212 3.212 0 01-2.488 1.124c-1.284 0-1.905-1.123-1.905-3.372zm75.851-7.682c-.117 0-.155 0-.155-.037a3.401 3.401 0 00-1.321-2.698 5.113 5.113 0 00-3.069-.937 4.598 4.598 0 00-4.663 3.26h-.155c-.039-1.238-.078-2.174-.078-2.774 0-.3-.155-.412-.505-.374-2.72.187-4.696.262-5.906.336-.233 0-.35.113-.35.3 0 .15.117.225.35.263.868 0 1.728.179 2.525.525.233.15.311.6.311 1.31V20.58c.059.473-.051.95-.311 1.35a6.514 6.514 0 01-2.255.336c-.271 0-.388.075-.388.225 0 .113.117.187.349.187h8.161c.271 0 .388-.075.388-.187s-.117-.187-.388-.225a6.53 6.53 0 01-1.321-.224.893.893 0 01-.661-.9v-2.998a28.05 28.05 0 01.506-6.295c.582-2.249 1.709-3.372 3.297-3.372 1.244 0 1.866.787 1.866 2.399l-.078 10.266c-.117.75-.855 1.124-2.215 1.124-.272 0-.389.075-.389.225 0 .113.117.187.389.187h7.849c.272 0 .389-.075.389-.187s-.117-.187-.389-.225a6.53 6.53 0 01-1.321-.224.893.893 0 01-.661-.9v-3.11c0-6.595 1.206-9.855 3.653-9.78 1.438.037 2.176.9 2.176 2.548l-.117 10.342c0 .75-.777 1.124-2.331 1.124-.272 0-.389.075-.389.225 0 .113.117.187.389.187h8.043c.272 0 .428-.075.428-.187 0-.15-.156-.225-.428-.225-1.554 0-2.292-.374-2.292-1.124l.233-9.33a3.612 3.612 0 00-1.316-3.034 5.09 5.09 0 00-3.498-1.162 3.98 3.98 0 00-2.992 1.012 8.61 8.61 0 00-1.361 2.735h.001z" fill="#6F6F6F"/></svg>