<svg width="142" height="30" fill="none" xmlns="http://www.w3.org/2000/svg"><path d="M50.618 17.28l-.839 2.373h-.07a16.826 16.826 0 00-.815-2.326l-4.498-11.28H39.99v17.978h2.913V12.932c0-.698 0-1.489-.023-2.465-.024-.489-.07-.86-.093-1.14h.07c.14.698.302 1.21.419 1.535l5.407 13.116h2.051l5.36-13.232c.117-.303.234-.907.35-1.419h.07a164.65 164.65 0 00-.14 3.233v11.395h3.1V6.001h-4.242l-4.614 11.28zm11.794-6.209h3.03v12.884h-3.03V11.071zM63.95 5.63c-.513 0-.932.186-1.282.512s-.536.744-.536 1.256c0 .488.186.907.536 1.232.35.326.77.489 1.282.489a1.86 1.86 0 001.282-.489c.35-.325.536-.744.536-1.232 0-.489-.187-.907-.536-1.256-.303-.326-.746-.512-1.282-.512zm12.236 5.326a8.468 8.468 0 00-1.702-.186c-1.375 0-2.633.302-3.682.907s-1.888 1.442-2.424 2.488c-.56 1.07-.839 2.303-.839 3.721 0 1.233.28 2.326.816 3.326.536.977 1.282 1.767 2.284 2.302.955.535 2.074.814 3.333.814 1.445 0 2.68-.302 3.659-.86l.023-.023v-2.791l-.116.093a5.214 5.214 0 01-1.469.767c-.536.186-1.025.28-1.445.28-1.212 0-2.167-.35-2.843-1.117-.7-.744-1.049-1.767-1.049-3.046 0-1.326.35-2.373 1.072-3.14.723-.768 1.678-1.163 2.844-1.163.978 0 1.98.326 2.89.977l.116.093v-2.954l-.023-.023c-.396-.163-.84-.349-1.445-.465zm9.998-.093a3.2 3.2 0 00-2.05.72c-.513.42-.863 1.024-1.166 1.745h-.023v-2.256h-3.03v12.884h3.03v-6.581c0-1.117.233-2.047.746-2.721.512-.698 1.165-1.047 1.957-1.047.28 0 .56.07.91.116.325.094.559.187.722.303l.116.093v-3.024l-.07-.023c-.21-.14-.629-.21-1.142-.21zm8.25-.07c-2.12 0-3.822.628-5.01 1.86-1.212 1.233-1.795 2.93-1.795 5.07 0 2 .606 3.628 1.772 4.814 1.165 1.163 2.75 1.768 4.73 1.768 2.075 0 3.73-.628 4.918-1.884 1.212-1.256 1.795-2.93 1.795-5 0-2.046-.559-3.674-1.701-4.86-1.096-1.186-2.704-1.768-4.708-1.768zM96.86 20.7c-.56.721-1.445 1.07-2.54 1.07-1.096 0-1.982-.349-2.611-1.116-.63-.721-.932-1.768-.932-3.093 0-1.372.326-2.419.932-3.163.63-.744 1.492-1.116 2.587-1.116 1.072 0 1.911.348 2.517 1.07.606.72.932 1.767.932 3.139-.046 1.395-.303 2.488-.885 3.21zm10.744-4.279c-.956-.395-1.562-.698-1.841-.953-.233-.233-.35-.559-.35-.977 0-.349.14-.698.49-.93.349-.233.745-.35 1.328-.35.513 0 1.049.094 1.562.233.512.14.979.35 1.351.628l.117.093v-2.837l-.07-.023a8.45 8.45 0 00-1.375-.396 9.36 9.36 0 00-1.492-.14c-1.445 0-2.633.35-3.566 1.117-.932.721-1.375 1.698-1.375 2.838 0 .604.094 1.139.303 1.58.21.443.513.861.933 1.21.419.326 1.025.698 1.864 1.047.699.302 1.235.535 1.562.72.326.187.536.396.699.559.116.186.186.418.186.72 0 .861-.652 1.28-1.981 1.28-.512 0-1.049-.093-1.678-.302a6.483 6.483 0 01-1.701-.861l-.117-.093v2.954l.07.023c.443.21.979.349 1.632.512.652.116 1.235.209 1.748.209 1.561 0 2.843-.35 3.752-1.116.932-.745 1.422-1.698 1.422-2.93 0-.861-.233-1.629-.746-2.21a9.457 9.457 0 00-2.727-1.605zm11.467-5.628c-2.121 0-3.822.628-5.011 1.86-1.189 1.233-1.795 2.93-1.795 5.07 0 2 .606 3.628 1.772 4.814 1.165 1.163 2.75 1.768 4.731 1.768 2.074 0 3.729-.628 4.918-1.884 1.211-1.256 1.794-2.93 1.794-5 0-2.046-.559-3.674-1.701-4.86-1.096-1.186-2.704-1.768-4.708-1.768zm2.4 9.907c-.559.721-1.445 1.07-2.54 1.07-1.119 0-1.981-.349-2.61-1.116-.63-.721-.933-1.768-.933-3.093 0-1.372.327-2.419.933-3.163.629-.744 1.491-1.116 2.587-1.116 1.048 0 1.911.348 2.517 1.07.606.72.932 1.767.932 3.139 0 1.395-.303 2.488-.886 3.21zm20.207-7.14v-2.488h-3.053V7.257l-.093.023-2.89.86-.07.024v2.907h-4.568V9.443c0-.744.186-1.325.513-1.697.326-.373.815-.559 1.421-.559.42 0 .863.093 1.352.303l.117.07V4.932l-.07-.024c-.42-.14-.979-.232-1.702-.232a5.47 5.47 0 00-2.424.558 4.038 4.038 0 00-1.654 1.651c-.397.698-.606 1.489-.606 2.396v1.79h-2.121v2.465h2.121v10.42h3.053V13.56h4.568v6.628c0 2.72 1.282 4.093 3.845 4.093.42 0 .863-.07 1.282-.14.443-.093.769-.21.956-.302l.023-.023v-2.489l-.116.093a1.99 1.99 0 01-.63.28 2.12 2.12 0 01-.606.092c-.606 0-1.025-.14-1.328-.488-.28-.326-.42-.86-.42-1.651V13.56h3.1z" fill="#737373"/><path d="M.93 0h14.287v14.256H.93V0zm15.779 0h14.286v14.256H16.708V0zM.93 15.742h14.287v14.256H.93V15.742zm15.779 0h14.286v14.256H16.708V15.742z" fill="#9D9D9D"/></svg>