<svg width="93" height="30" fill="none" xmlns="http://www.w3.org/2000/svg"><path d="M40.04 15.789c0 4.315-3.426 7.496-7.63 7.496s-7.63-3.18-7.63-7.496c0-4.346 3.426-7.496 7.63-7.496s7.63 3.15 7.63 7.496zm-3.34 0c0-2.697-1.986-4.542-4.29-4.542-2.305 0-4.29 1.845-4.29 4.542 0 2.67 1.985 4.542 4.29 4.542 2.304 0 4.29-1.876 4.29-4.542zm19.8 0c0 4.315-3.425 7.496-7.63 7.496-4.203 0-7.63-3.18-7.63-7.496 0-4.343 3.426-7.496 7.63-7.496 4.205 0 7.63 3.15 7.63 7.496zm-3.34 0c0-2.697-1.985-4.542-4.29-4.542-2.304 0-4.29 1.845-4.29 4.542 0 2.67 1.986 4.542 4.29 4.542 2.305 0 4.29-1.876 4.29-4.542z" fill="#9D9D9D"/><path d="M72.275 8.746v13.457c0 5.536-3.312 7.797-7.228 7.797-3.687 0-5.905-2.43-6.742-4.417l2.908-1.193c.517 1.22 1.786 2.66 3.83 2.66 2.507 0 4.06-1.525 4.06-4.394v-1.078h-.116c-.748.909-2.188 1.703-4.006 1.703-3.803 0-7.287-3.264-7.287-7.465 0-4.231 3.484-7.523 7.287-7.523 1.815 0 3.255.794 4.006 1.676h.116V8.75h3.172v-.003zm-2.935 7.07c0-2.64-1.787-4.57-4.06-4.57-2.305 0-4.235 1.93-4.235 4.57 0 2.612 1.93 4.515 4.235 4.515 2.273 0 4.06-1.903 4.06-4.515z" fill="#6F6F6F"/><path d="M77.505.86v21.966h-3.257V.86h3.257zM90.2 18.255l2.593 1.704c-.837 1.22-2.853 3.322-6.337 3.322-4.32 0-7.548-3.292-7.548-7.496 0-4.458 3.254-7.496 7.174-7.496 3.947 0 5.878 3.096 6.509 4.769l.346.851-10.168 4.15c.779 1.504 1.99 2.271 3.687 2.271 1.7 0 2.88-.824 3.745-2.075zm-7.98-2.697l6.797-2.78c-.373-.937-1.498-1.59-2.822-1.59-1.697 0-4.06 1.477-3.974 4.37z" fill="#9D9D9D"/><path d="M12.45 13.836v-3.18h10.873c.107.554.162 1.21.162 1.92 0 2.385-.662 5.335-2.795 7.438-2.075 2.129-4.726 3.264-8.237 3.264C5.944 23.278.47 18.053.47 11.64S5.944 0 12.453 0c3.6 0 6.166 1.392 8.093 3.207l-2.277 2.244c-1.382-1.277-3.254-2.27-5.82-2.27a8.41 8.41 0 00-8.47 8.458 8.41 8.41 0 008.47 8.459c3.083 0 4.839-1.22 5.964-2.328.912-.9 1.512-2.184 1.749-3.938l-7.713.004z" fill="#6F6F6F"/></svg>