<svg width="87" height="30" fill="none" xmlns="http://www.w3.org/2000/svg"><path fill-rule="evenodd" clip-rule="evenodd" d="M.981 0h85.096v30H.981V0zm.866 15.072c0-7.607 18.726-13.774 41.826-13.774S85.5 7.465 85.5 15.072c0 7.608-18.726 13.774-41.827 13.774-23.1 0-41.826-6.166-41.826-13.774 0 7.608 0 0 0 0z" fill="#6F6F6F"/><path fill-rule="evenodd" clip-rule="evenodd" d="M1.846 15.071c0-7.607 18.726-13.774 41.827-13.774 23.1 0 41.827 6.167 41.827 13.774 0 7.607-18.727 13.774-41.827 13.774-23.1 0-41.827-6.167-41.827-13.774 0 7.607 0 0 0 0z" fill="#EEE"/><path fill-rule="evenodd" clip-rule="evenodd" d="M13.266 9.394H20.7s-.199.312-.199.701v9.572c0 .52.223.962.223.962H13.24s.223-.443.223-.885v-9.57c0-.365-.198-.78-.198-.78zm11.136.025h7.07s-.198.333-.198.641v3.434l2.505-3.203s.15-.231.15-.462v-.358h7.193l-3.051 4.254s-.15.179-.15.307c0 .129.125.308.125.308l3.92 6.227h-8.659s.15-.23.15-.461c0-.23-.15-.513-.15-.513l-2.059-3.357v3.64c0 .307.223.716.223.716h-7.069s.199-.281.199-.589V10.06c0-.306-.199-.64-.199-.64zm19.669.078h12.646v3.397s-.273-.252-.62-.252h-5.182v.93h4.513v2.995s-.298-.252-.62-.252h-3.943v1.032h5.307c.297 0 .471-.478.471-.478v3.724H44.071s.224-.328.224-.554v-9.712c0-.403-.224-.83-.224-.83zm18.241-.122h10.111s-.198.468-.198.728c0 .26.173.728.173.728l4.04 9.78h-7.583s.173-.287.073-.52c-.209-.52-.415-1.04-.619-1.561h-3.122s-.62 1.378-.62 1.639c0 .26.199.468.199.468H58.52l3.916-10.222s.149-.208.149-.468-.273-.572-.273-.572zm4.287 4.994l-.743 2.003h1.635l-.892-2.003z" fill="#6F6F6F"/></svg>