<svg width="158" height="26" fill="none" xmlns="http://www.w3.org/2000/svg"><path d="M15.873 13.35c1.25.1 2.3.6 3.2 1.55.9.95 1.35 2.25 1.35 3.9 0 2-.65 3.65-2 4.85-1.35 1.2-3.25 1.8-5.8 1.8H.323V1.75h12.25c2.15 0 3.9.6 5.2 1.75 1.3 1.2 1.95 2.75 1.95 4.7 0 1.5-.4 2.65-1.25 3.55-.85.9-1.7 1.35-2.65 1.45l.05.15zm-9.7-1.8h5.1c.85 0 1.55-.25 2.1-.75.5-.5.8-1.1.8-1.95 0-.75-.25-1.3-.75-1.75-.5-.45-1.15-.65-1.9-.65h-5.35v5.1zm5.4 9.2c.9 0 1.65-.25 2.15-.7.5-.45.75-1.1.75-1.95 0-.8-.25-1.4-.8-1.85-.5-.45-1.2-.7-2-.7h-5.5v5.2h5.4zm29.1 4.7h-5.65v-1.7c-1.4 1.5-3.25 2.25-5.45 2.25-2.1 0-3.75-.7-5-2.05-1.25-1.35-1.9-3.15-1.9-5.35V7.7h5.6v9.7c0 1.05.3 1.9.85 2.55.55.65 1.3.95 2.2.95 1.15 0 2.05-.4 2.7-1.2.65-.8.95-2.05.95-3.75V7.7h5.65l.05 17.75zm17.45 0h-15V24.4l7.05-12.2h-6.85V7.7h14.7v1.05l-7.05 12.2h7.1v4.5h.05zm17.4 0h-14.95V24.4l7-12.2h-6.85V7.7h14.7v1.05l-7.05 12.2h7.1l.05 4.5zm8.4-13.55h10.25V17h-10.25v8.5h-5.85V1.75h17v5.1h-11.15v5.05zm51.7 6.15h-13c.35 2.2 2 3.45 4.45 3.45 1.95 0 3.9-.75 5.35-1.9l2.15 3.75c-2 1.7-4.55 2.65-7.5 2.65-5.95 0-10-3.6-10-9.4 0-2.75.9-5 2.7-6.75 1.8-1.75 4.05-2.65 6.7-2.65 2.55 0 4.7.85 6.45 2.6s2.65 4 2.7 6.85v1.4zm-11.45-5.55c-.7.5-1.2 1.2-1.45 2.05h7.3c-.25-.9-.7-1.6-1.35-2.1-.65-.45-1.4-.7-2.2-.7-.85 0-1.6.25-2.3.75zm-9.25 5.55h-13c.35 2.2 2 3.45 4.45 3.45 1.95 0 3.9-.75 5.35-1.9l2.15 3.75c-2 1.7-4.55 2.65-7.5 2.65-5.95 0-10-3.6-10-9.4 0-2.75.9-5 2.7-6.75 1.8-1.75 4.05-2.65 6.7-2.65 2.55 0 4.7.85 6.45 2.6s2.65 4 2.7 6.85v1.4zm-11.45-5.55c-.7.5-1.2 1.2-1.45 2.05h7.3c-.25-.9-.7-1.6-1.35-2.1-.65-.45-1.4-.7-2.2-.7-.85 0-1.6.25-2.3.75zm54 12.95h-5.65v-1.4c-1.45 1.3-3.25 1.95-5.5 1.95-2.4 0-4.45-.9-6.15-2.65-1.7-1.75-2.55-4-2.55-6.75s.85-5 2.55-6.75c1.7-1.75 3.75-2.65 6.15-2.65 2.25 0 4.1.65 5.5 1.95V0h5.65v25.45zm-6.9-5.55c.85-.85 1.3-1.95 1.3-3.3 0-1.3-.45-2.4-1.3-3.3-.85-.85-1.9-1.3-3.05-1.3-1.25 0-2.25.45-3.05 1.3-.8.85-1.2 1.95-1.2 3.3 0 1.35.4 2.5 1.2 3.35.8.85 1.8 1.25 3.05 1.25 1.15 0 2.15-.45 3.05-1.3z" fill="#6F6F6F"/></svg>