<svg width="106" height="30" fill="none" xmlns="http://www.w3.org/2000/svg"><path d="M11.893 4.969v8.457H4.187V4.97H.528v20.189h3.659v-8.183h7.706v8.183h3.659V4.968h-3.659zM27.26 18.632a3.06 3.06 0 01-.886 2.157 3.015 3.015 0 01-2.14.893 3.015 3.015 0 01-2.14-.893 3.063 3.063 0 01-.887-2.157V9.984h-3.47v8.648c0 1.735.684 3.399 1.9 4.626a6.465 6.465 0 004.59 1.916c1.722 0 3.373-.69 4.59-1.916a6.569 6.569 0 001.901-4.626V9.984h-3.457v8.648zm25.713-7.757c0-1.772 1.164-2.334 2.438-2.334 1.027 0 2.384.788 3.272 1.743l2.273-2.699c-1.135-1.547-3.437-2.616-5.32-2.616-3.765 0-6.488 2.222-6.488 5.906 0 6.835 8.289 4.667 8.289 8.492 0 1.18-1.137 2.222-2.438 2.222-2.053 0-2.718-1.011-3.66-2.081l-2.523 2.643c1.614 1.997 3.603 3.01 5.987 3.01 3.577 0 6.454-2.249 6.454-5.765 0-7.589-8.29-5.23-8.29-8.52m51.284 11.054c-2.051 0-2.634-.894-2.634-2.264v-6.061h3.188v-3.072h-3.188V6.48l-3.518 1.592V20.42c0 3.158 2.161 4.75 5.126 4.75a7.06 7.06 0 001.388-.112l.858-3.186c-.387.028-.831.055-1.22.055M40.47 10.082c-1.719 0-2.918.502-4.078 1.65V5.085h-3.476v12.317c0 4.61 3.308 7.769 7.024 7.769 4.123 0 7.749-3.214 7.749-7.543 0-4.275-3.338-7.546-7.219-7.546v-.001zm-.021 11.565c-.78 0-1.543-.233-2.191-.67a3.969 3.969 0 01-1.453-1.784 4.004 4.004 0 01.855-4.332A3.914 3.914 0 0141.958 14c.72.301 1.336.811 1.77 1.465a3.997 3.997 0 01-.49 5.019 3.928 3.928 0 01-2.79 1.164zM78.21 17.45c0-4.337-3.618-7.544-7.748-7.544-3.716 0-7.024 3.159-7.024 7.77V30h3.476v-6.655c1.158 1.146 2.36 1.65 4.076 1.65 3.881 0 7.219-3.269 7.219-7.545h.002zm-3.29-.044c0 .786-.232 1.555-.665 2.209a3.95 3.95 0 01-1.77 1.464 3.915 3.915 0 01-4.297-.862 4.004 4.004 0 01-.855-4.332 3.969 3.969 0 011.452-1.784 3.921 3.921 0 014.98.494 3.991 3.991 0 011.155 2.811z" fill="#6F6F6F"/><path d="M89.438 9.731v-3.52a2.696 2.696 0 001.127-.994c.275-.432.422-.935.424-1.448v-.081c0-.72-.284-1.408-.788-1.917A2.678 2.678 0 0088.3.977h-.08a2.68 2.68 0 00-1.902.794 2.721 2.721 0 00-.787 1.917v.081a2.71 2.71 0 001.55 2.443v3.52a7.586 7.586 0 00-3.62 1.606L73.883 3.82a3.05 3.05 0 00.108-.761 3.07 3.07 0 00-.508-1.698A3.035 3.035 0 0072.126.234a3.007 3.007 0 00-3.302.657 3.076 3.076 0 00-.661 3.327 3.048 3.048 0 001.113 1.372 3.012 3.012 0 001.683.517 2.98 2.98 0 001.491-.408l9.43 7.395a7.743 7.743 0 00.117 8.672l-2.868 2.891a2.446 2.446 0 00-.717-.117c-.492 0-.972.148-1.381.423a2.504 2.504 0 00-.916 1.126 2.526 2.526 0 00.54 2.732 2.47 2.47 0 002.71.544c.455-.19.844-.51 1.117-.923.274-.412.42-.897.42-1.393a2.496 2.496 0 00-.116-.722l2.837-2.86a7.621 7.621 0 003.146 1.446 7.59 7.59 0 003.456-.097 7.63 7.63 0 003.06-1.62 7.71 7.71 0 002.04-2.814 7.764 7.764 0 00-.353-6.78 7.69 7.69 0 00-2.321-2.582 7.616 7.616 0 00-3.213-1.289zm-1.176 11.575a3.905 3.905 0 01-2.18-.669 3.952 3.952 0 01-1.444-1.776 3.986 3.986 0 01.853-4.31 3.897 3.897 0 014.277-.857c.717.298 1.33.805 1.761 1.456a3.979 3.979 0 01-.487 4.995 3.91 3.91 0 01-2.776 1.159" fill="#9D9D9D"/></svg>