<svg width="49" height="30" fill="none" xmlns="http://www.w3.org/2000/svg"><path fill-rule="evenodd" clip-rule="evenodd" d="M40.628 7.224l-1.945 1.945h-3.055l-1.666 1.666V9.17h-2.5V1.113h9.166v6.11zM30.35.002l-.556 2.222v10h2.5v1.39h1.39l1.389-1.39h2.221L41.74 7.78V.002H30.35z" fill="#6F6F6F"/><path fill-rule="evenodd" clip-rule="evenodd" d="M34.516 6.668h1.111V3.334h-1.11v3.334zm3.056 0h1.11V3.334h-1.11v3.334zm9.999 12.777l-1.944-1.944h-3.611v-2.5H38.96V26.39h3.056v-5.833h2.5v5.833h3.055v-6.944zm-9.721-1.944h-4.722l-1.945 1.944v5l1.945 1.944h4.721v-3.055h-3.61v-2.778h3.61v-3.055zm-7.778 0h-2.5v-2.5h-3.055v9.444l1.944 1.944h3.611v-3.055h-2.5v-2.778h2.5v-3.055zm-6.666-2.5H20.35v1.39h3.055V15zm0 2.5H20.35v8.888h3.055v-8.888zm-4.166 0h-3.056v5.833h-1.11v-5.833h-3.056v5.833h-1.11v-5.833H7.852v8.888h9.444l1.944-1.944V17.5zm-12.5 0H4.242v-2.5H1.186v9.444l1.944 1.944h3.61v-3.055H4.242v-2.778h2.5v-3.055zm41.941 1.389v8.332L44.515 30h-2.777v-1.39L39.794 30h-2.5v-1.39L35.906 30H31.46l-1.389-1.39-.278 1.39h-3.888l-1.59-1.39-.089 1.39H19.82l-.156-1.39L18.471 30h-6.73l-1.39-.556V30h-3.61l-4.167-2.5-2.5-2.5V13.89h5.278l2.5 2.5H19.24v-2.5h9.443v2.5h2.5v1.388l1.39-1.389h2.776l2.5-2.5h5.278v2.5h3.055l2.5 2.5z" fill="#6F6F6F"/></svg>