<svg width="153" height="30" fill="none" xmlns="http://www.w3.org/2000/svg"><path fill-rule="evenodd" clip-rule="evenodd" d="M23.922 7.059a7.062 7.062 0 01-7.064 7.059 7.062 7.062 0 01-7.064-7.06A7.062 7.062 0 0116.858 0a7.061 7.061 0 017.064 7.059zm-16.24 8.824A7.061 7.061 0 00.618 22.94 7.061 7.061 0 007.682 30a7.062 7.062 0 007.064-7.059 7.061 7.061 0 00-7.064-7.058zm18.353 0a7.061 7.061 0 00-7.064 7.058A7.061 7.061 0 0026.035 30a7.061 7.061 0 007.064-7.059 7.061 7.061 0 00-7.064-7.059z" fill="#9D9D9D"/><path fill-rule="evenodd" clip-rule="evenodd" d="M57.954 22.855c.093 1.047.93 2.38 2.383 2.38h.85c.329 0 .599-.27.599-.6V5.963h-.004a.599.599 0 00-.595-.566h-2.633a.6.6 0 00-.596.566h-.004V7.48c-1.613-1.987-4.156-2.812-6.707-2.812-5.797 0-10.496 4.7-10.496 10.497 0 5.798 4.7 10.498 10.496 10.498 2.55 0 5.33-.989 6.707-2.81v.002zm-6.696-.866c-3.687 0-6.676-3.055-6.676-6.824 0-3.768 2.989-6.823 6.676-6.823 3.687 0 6.675 3.055 6.675 6.823 0 3.77-2.988 6.824-6.675 6.824zm49.592.866c.092 1.047.93 2.38 2.382 2.38h.85c.329 0 .599-.27.599-.6V5.963h-.003a.6.6 0 00-.596-.566h-2.633a.6.6 0 00-.596.566h-.003V7.48c-1.613-1.987-4.157-2.812-6.707-2.812-5.798 0-10.497 4.7-10.497 10.497 0 5.798 4.7 10.498 10.497 10.498 2.55 0 5.33-.989 6.707-2.81v.002zm-6.697-.866c-3.687 0-6.676-3.055-6.676-6.824 0-3.768 2.99-6.823 6.676-6.823 3.687 0 6.676 3.055 6.676 6.823 0 3.77-2.989 6.824-6.676 6.824zm54.649.866c.093 1.047.931 2.38 2.383 2.38h.85c.329 0 .599-.27.599-.6V5.963h-.004a.598.598 0 00-.595-.566h-2.633a.599.599 0 00-.596.566h-.004V7.48c-1.613-1.987-4.156-2.812-6.706-2.812-5.798 0-10.497 4.7-10.497 10.497 0 5.798 4.699 10.498 10.497 10.498 2.55 0 5.329-.989 6.706-2.81v.002zm-6.696-.866c-3.687 0-6.676-3.055-6.676-6.824 0-3.768 2.989-6.823 6.676-6.823 3.687 0 6.676 3.055 6.676 6.823 0 3.77-2.989 6.824-6.676 6.824zm-13.834 1.514l-.002-9.663h.001c0-5.447-3.437-9.121-8.916-9.121-2.616 0-4.76 1.512-5.517 2.812-.164-1.016-.703-2.084-2.376-2.084h-.852a.6.6 0 00-.599.6V24.72h.003a.6.6 0 00.596.566h2.633c.04 0 .08-.004.118-.012.017-.003.034-.01.051-.015.019-.006.04-.01.058-.018.024-.01.045-.023.067-.035.01-.007.022-.011.032-.018a.582.582 0 00.073-.058l.013-.01a.596.596 0 00.184-.4h.003V13.69a5.297 5.297 0 0110.594 0l.003 9.22v-.004l.002.026v1.788h.003a.599.599 0 00.596.566h2.633c.04 0 .08-.004.118-.012.015-.003.03-.009.045-.013.022-.006.044-.012.064-.02.022-.01.042-.022.062-.033.012-.007.025-.012.037-.02a.52.52 0 00.069-.055c.005-.005.012-.008.017-.014a.588.588 0 00.067-.077l.005-.006a.586.586 0 00.111-.314l.001-.002h.003v-1.218zM68.076 20.18c1.757 1.218 3.676 1.81 5.52 1.81 1.756 0 3.572-.911 3.572-2.496 0-2.116-3.957-2.445-6.443-3.29-2.486-.845-4.628-2.592-4.628-5.42 0-4.328 3.856-6.116 7.456-6.116 2.28 0 4.633.752 6.159 1.83.525.397.205.854.205.854l-1.456 2.08c-.164.235-.45.437-.86.183-.411-.253-1.852-1.273-4.048-1.273-2.196 0-3.52 1.014-3.52 2.271 0 1.508 1.72 1.982 3.734 2.496 3.51.946 7.338 2.083 7.338 6.385 0 3.814-3.567 6.17-7.51 6.17-2.987 0-5.53-.851-7.664-2.417-.444-.445-.134-.857-.134-.857l1.45-2.07c.294-.387.666-.252.829-.14z" fill="#6F6F6F"/></svg>