<svg width="152" height="28" fill="none" xmlns="http://www.w3.org/2000/svg"><g opacity=".8"><path d="M133.605 0a.988.988 0 00-.989.988V7.92h18.309L142.587 0h-8.982zm17.99 10.015a.985.985 0 00-.989-.988h-6.929v18.31l7.915-8.341.003-8.981zm-10.017 17.986a.989.989 0 00.987-.99v-6.929h-18.31L132.594 28l8.984.001zm-17.993-10.013c0 .547.443.992.991.992h6.928V.668l-7.917 8.34-.002 8.98z" fill="#9D9D9D"/><path d="M39.66 3.344V11.8H27.88V3.344l-4.29-.004v21.32h4.29v-9.159h11.78v9.16h4.299V3.344H39.66zm57.08 0v21.312h18.825l-2.384-3.752h-12.137v-5.403h11.752v-3.613h-11.752v-4.88h12.116l2.336-3.664H96.741zM7.64 3.34C3.177 3.34.923 6.053.923 10v7.959c0 4.569 2.905 6.702 6.695 6.702l13.462-.001-2.496-3.897H8.45c-2.153 0-3.091-.778-3.091-3.188v-7.22c0-2.33.79-3.239 3.148-3.239H18.69l2.396-3.777H7.64zm70.273-.007c-2.578 0-5.22 1.55-5.22 5.535v1.024c0 4.154 2.542 5.739 5.085 5.75h8.927c.928 0 1.68.154 1.68 1.721v1.81c-.024 1.408-.726 1.73-1.711 1.73H74.929l-2.406 3.753H86.95c3.479 0 5.84-1.731 5.84-5.729v-1.47c0-3.864-2.194-5.69-5.596-5.69H78.67c-.945 0-1.604-.259-1.604-1.658V8.635c0-1.193.452-1.627 1.553-1.627l11.184-.005 2.338-3.675-14.228.005zm-21.488.011L46.315 24.66h4.778l1.97-4.402h10.985l1.962 4.402h4.799L60.676 3.344h-4.252zm2.12 4.425l3.884 8.86h-7.744l3.86-8.86z" fill="#6F6F6F"/></g></svg>