<svg width="129" height="30" fill="none" xmlns="http://www.w3.org/2000/svg"><path d="M46.12 10.672v1.7h.052c.612-.91 1.628-1.982 3.879-1.982 1.751 0 3.094.892 3.67 2.238h.052c.492-.68 1.056-1.196 1.688-1.56.747-.433 1.58-.682 2.627-.682 2.37 0 4.47 1.543 4.47 5.432v7.376h-3.615v-6.86c0-1.972-.711-3.111-2.19-3.111a2.27 2.27 0 00-2.172 1.527c-.104.29-.152.684-.152 1.015v7.433h-3.615v-7.143c0-1.674-.683-2.836-2.143-2.836-1.167 0-1.9.865-2.199 1.606-.128.316-.168.68-.168 1.023v7.346h-3.619V10.672h3.435zm35.095 0v2.362h.1c.664-1.805 2.24-2.644 3.623-2.644.348 0 .54.026.82.08v3.28c-.332-.046-.64-.091-1.072-.091-1.568 0-2.66.857-2.935 2.2-.06.279-.08.58-.08.926v6.413h-3.71V10.672h3.254zm9.58-4.149v3.942h3.135v3.19h-3.134v4.706c0 1.523.411 2.26 1.635 2.26.576 0 1-.067 1.368-.154l.047 2.644c-.491.173-1.539.361-2.603.361-1.251 0-2.295-.41-2.93-1.045-.728-.726-1.064-1.915-1.064-3.607V6.523h3.547zM40.167 23.194h-3.598V6.524h3.598v16.67zm-9.596-4.472c0 .23-.02.47-.088.677-.28.869-1.236 1.602-2.427 1.602-.996 0-1.788-.53-1.788-1.655 0-1.719 2.016-2.197 4.307-2.185v1.56h-.004zm3.595-2.998c0-2.84-1.288-5.334-5.642-5.334-2.235 0-4.01.59-4.979 1.117l.708 2.28c.884-.527 2.295-.96 3.63-.96 2.212-.003 2.572 1.178 2.572 1.934v.18c-4.818-.007-7.861 1.562-7.861 4.759 0 1.952 1.547 3.78 4.242 3.78 1.66 0 3.043-.62 3.875-1.617h.08s.552 2.162 3.583 1.335c-.16-.903-.212-1.862-.212-3.017v-4.457h.004zm-29.65-9.2c.372 1.764 1.428 6.887 1.428 6.887a192.87 192.87 0 011.16 6.06h.056c.3-1.855.771-3.612 1.275-5.786l1.78-7.162h3.938l1.663 7.347c.436 2.042.784 3.618 1.06 5.518h.052c.3-1.919.692-3.559 1.12-5.658l1.599-7.207h3.778l-4.682 16.671c-2.983.613-4.126-.515-4.534-2.306C13.8 19.094 13 15.682 13 15.682c-.411-1.869-.731-3.185-.955-5.104h-.056c-.32 1.9-.656 3.231-1.152 5.1l-1.963 7.52c-3.047.572-4.103-.275-4.686-2.573C3.684 18.658.54 6.527.54 6.527h3.975v-.004zm67.448 12.198c0 .23-.02.47-.088.677-.28.869-1.236 1.602-2.427 1.602-.996 0-1.788-.53-1.788-1.655 0-1.719 2.015-2.197 4.307-2.185v1.56h-.004zm3.594-2.998c0-2.84-1.287-5.334-5.642-5.334-2.235 0-4.01.59-4.978 1.117l.708 2.28c.884-.527 2.295-.96 3.63-.96 2.208-.003 2.572 1.178 2.572 1.934v.18c-4.815-.007-7.857 1.562-7.857 4.759 0 1.952 1.551 3.78 4.242 3.78 1.655 0 3.043-.62 3.87-1.617h.084s.552 2.162 3.583 1.335c-.16-.903-.212-1.862-.212-3.017v-4.457z" fill="#6F6F6F"/><path d="M108.518 17.45c.355.61.331 1.29-.047 1.6l-6.545 4.52c-.682.39-1.702-.082-2.28-1.068-.582-.99-.478-2.093.204-2.482l7.245-3.323c.455-.173 1.069.145 1.423.754zm8.613 0c.359-.608.969-.922 1.423-.757l7.25 3.323c.682.389.781 1.492.203 2.482-.581.986-1.606 1.453-2.283 1.068l-6.545-4.52c-.374-.307-.402-.99-.048-1.595zm-4.308 2.452c.713 0 1.299.361 1.379.836l.705 7.848c0 .778-.92 1.414-2.08 1.414-1.156 0-2.081-.636-2.081-1.414l.702-7.848c.08-.475.665-.836 1.375-.836zm4.356-8.948l6.545-4.524c.677-.39 1.702.078 2.283 1.068.578.99.479 2.094-.203 2.482l-7.25 3.327c-.454.165-1.068-.15-1.423-.758-.354-.609-.326-1.288.048-1.595zm-10.084 2.353L99.85 9.98c-.678-.388-.782-1.492-.204-2.482.578-.99 1.602-1.457 2.28-1.068l6.545 4.524c.378.303.402.986.047 1.595-.354.609-.968.923-1.423.758zm4.353-4.045l-.702-7.848c0-.778.921-1.414 2.081-1.414s2.08.636 2.08 1.414l-.705 7.848c-.08.47-.666.836-1.379.836-.71 0-1.295-.365-1.375-.836zm16.329 14.277v-.197h.179c.06 0 .1.04.1.099 0 .055-.04.098-.1.098h-.179zm-.147.357c0 .02.016.04.039.04h.076c.02 0 .04-.02.04-.04v-.224h.124l.099.236c.008.016.02.028.036.028h.092a.039.039 0 00.036-.055c-.036-.071-.072-.146-.108-.22a.218.218 0 00.152-.22c0-.15-.124-.236-.248-.236h-.299c-.019 0-.039.02-.039.04v.651zm-.323-.326c0-.318.263-.577.586-.577a.58.58 0 01.586.577.58.58 0 01-.586.578.58.58 0 01-.586-.578zm-.14 0a.72.72 0 00.726.715.723.723 0 00.725-.715.723.723 0 00-.725-.715.72.72 0 00-.726.715z" fill="#9D9D9D"/></svg>