<svg width="97" height="30" fill="none" xmlns="http://www.w3.org/2000/svg"><path d="M28.116 21.268c-.15-.365-.292-.75-.444-1.077l-.699-1.565-.028-.028a309.3 309.3 0 00-6.65-13.566l-.095-.187c-.237-.44-.473-.928-.718-1.377-.303-.534-.596-1.106-1.077-1.65a5.002 5.002 0 00-1.731-1.34 5.042 5.042 0 00-6.016 1.34c-.444.544-.775 1.116-1.077 1.65-.237.487-.473.965-.718 1.405l-.095.187a358.893 358.893 0 00-6.65 13.566l-.057.056c-.208.488-.454.994-.69 1.537-.151.328-.302.684-.454 1.077a6.322 6.322 0 00.915 6.248 6.42 6.42 0 002.623 1.974 6.473 6.473 0 003.265.426 7.96 7.96 0 003.004-1.03c1.228-.685 2.409-1.678 3.732-3.111 1.322 1.433 2.531 2.426 3.731 3.12A7.966 7.966 0 0021.985 30a6.447 6.447 0 004.22-1.547 6.347 6.347 0 002.157-3.915 5.522 5.522 0 00-.245-3.28v.01zM14.55 22.823c-1.625-2.06-2.683-3.953-3.042-5.574a4.831 4.831 0 01-.094-1.836c.066-.478.245-.9.49-1.255.568-.816 1.56-1.322 2.646-1.322a3.139 3.139 0 011.49.325c.461.23.858.568 1.155.987.246.375.425.787.482 1.265.095.543.057 1.171-.094 1.836-.36 1.593-1.417 3.504-3.033 5.575zm12.036 1.387a4.44 4.44 0 01-.897 2.119 4.492 4.492 0 01-1.843 1.394c-.718.3-1.511.385-2.286.3a5.947 5.947 0 01-2.286-.787 14.747 14.747 0 01-3.43-2.904c1.984-2.436 3.184-4.656 3.638-6.633a7.28 7.28 0 00.15-2.558 5.154 5.154 0 00-.812-2.06 5.051 5.051 0 00-1.852-1.594 5.097 5.097 0 00-2.39-.543c-1.747 0-3.306.806-4.251 2.127-.425.62-.7 1.328-.803 2.07a6.117 6.117 0 00.151 2.558c.454 1.977 1.682 4.225 3.637 6.652a13.506 13.506 0 01-3.429 2.923c-.784.45-1.53.684-2.286.777a4.525 4.525 0 01-3.304-.881 4.452 4.452 0 01-1.722-2.932c-.095-.75-.029-1.499.274-2.342.094-.3.236-.6.387-.956.208-.487.453-.993.69-1.499l.037-.065a304.871 304.871 0 016.585-13.5l.095-.188c.236-.45.472-.927.718-1.377.245-.478.51-.937.85-1.312a3.159 3.159 0 014.809 0c.33.375.604.834.85 1.312.236.45.472.937.718 1.377l.095.188a369.949 369.949 0 016.613 13.5l.028.028c.246.487.454 1.03.69 1.499.15.365.302.656.396.965.18.843.274 1.593.18 2.342zm13.15-1.593a4.777 4.777 0 01-2.062-.435 4.737 4.737 0 01-1.669-1.28 6.106 6.106 0 01-1.512-4.196 6.488 6.488 0 011.569-4.291 5.003 5.003 0 011.732-1.296 5.043 5.043 0 012.122-.447 4.09 4.09 0 011.983.452 4.05 4.05 0 011.513 1.347l.094-1.47h2.76v11.317h-2.769l-.094-1.65a4.257 4.257 0 01-1.578 1.448 4.3 4.3 0 01-2.088.501zm.719-2.698c.548 0 1.03-.15 1.483-.421.416-.3.756-.694 1.02-1.172.237-.477.36-1.049.36-1.686a3.18 3.18 0 00-.316-1.606 3.211 3.211 0 00-1.073-1.242 2.805 2.805 0 00-2.948 0c-.416.3-.756.693-1.02 1.171a3.728 3.728 0 00-.36 1.687 3.18 3.18 0 00.316 1.605c.243.5.613.928 1.073 1.243.445.271.926.421 1.465.421zM50.989 7.946c0 .328-.057.628-.208.871-.151.235-.36.45-.633.6-.274.15-.567.206-.87.206a1.81 1.81 0 01-.878-.206 1.733 1.733 0 01-.633-.6 1.693 1.693 0 01-.208-.871c0-.337.067-.637.208-.871.151-.281.369-.45.633-.6.274-.15.567-.215.879-.215a1.75 1.75 0 011.511.805c.138.273.206.576.199.881zM47.777 22.28V10.981h3.004V22.3h-3.014l.01-.019zm11.034-8.338v.037c-.142-.065-.33-.093-.472-.121-.19-.038-.34-.038-.52-.038-.84 0-1.474.244-1.89.75-.453.515-.66 1.236-.66 2.164v5.555h-3.014V10.973h2.768l.094 1.715c.303-.6.662-1.05 1.172-1.387a2.946 2.946 0 011.71-.468c.217 0 .425.018.604.056.095.028.152.028.208.056v2.998zm1.21 8.338V6.335h3.004v6.09a4.756 4.756 0 011.511-1.294 4.778 4.778 0 013.087-.374 4.75 4.75 0 012.657 1.602 6.105 6.105 0 011.512 4.206 6.488 6.488 0 01-1.568 4.291 5.005 5.005 0 01-1.733 1.295 5.044 5.044 0 01-2.122.448 4.09 4.09 0 01-1.982-.452 4.052 4.052 0 01-1.513-1.347l-.095 1.47-2.759.029v-.019zm5.81-2.36c.538 0 1.02-.15 1.474-.422a3.54 3.54 0 001.02-1.172c.245-.477.359-1.049.359-1.686 0-.628-.114-1.199-.36-1.677a3.52 3.52 0 00-1.02-1.17 2.805 2.805 0 00-2.947 0c-.425.299-.756.692-1.03 1.17a3.73 3.73 0 00-.359 1.687 3.182 3.182 0 00.315 1.605c.244.5.614.928 1.074 1.243.444.271.926.421 1.474.421zm7.095 2.37V10.972h2.768l.094 1.471a3.729 3.729 0 011.43-1.337 3.766 3.766 0 011.915-.434 3.899 3.899 0 012.152.604 3.85 3.85 0 011.457 1.682c.33.712.51 1.593.51 2.577v6.783h-3.014v-6.39c0-.787-.18-1.405-.538-1.864-.36-.45-.85-.694-1.474-.694-.454 0-.85.094-1.2.3-.33.216-.605.488-.813.872-.21.388-.314.824-.302 1.264v6.484h-2.985zm11.828 0V6.325h3.014v6.09a4.404 4.404 0 011.55-1.298 4.442 4.442 0 011.974-.473 4.777 4.777 0 012.063.435 4.737 4.737 0 011.668 1.28 6.124 6.124 0 011.502 4.197 6.479 6.479 0 01-1.568 4.29 5.004 5.004 0 01-1.732 1.296 5.043 5.043 0 01-2.122.447 4.09 4.09 0 01-1.983-.451 4.05 4.05 0 01-1.513-1.348l-.085 1.471-2.768.029zm5.838-2.37c.548 0 1.03-.15 1.474-.422.425-.3.756-.694 1.03-1.172.236-.477.359-1.049.359-1.686a3.182 3.182 0 00-.315-1.606 3.21 3.21 0 00-1.074-1.242 2.805 2.805 0 00-2.947 0c-.416.3-.756.693-1.02 1.171a3.377 3.377 0 00-.36 1.687 3.182 3.182 0 00.316 1.605c.243.5.613.928 1.073 1.243.444.271.898.421 1.464.421z" fill="#9D9D9D"/></svg>